<svg width="1440" height="3258" viewBox="0 0 1440 3258" fill="none" xmlns="http://www.w3.org/2000/svg">
<g clip-path="url(#clip0_189_1050)">
<path d="M0 2946H1440V144H0V2946Z" fill="#1A1A1A"/>
<path opacity="0.4" d="M-8 1876C139 1773.67 554.616 1448.8 809 1605C923 1675 1347.5 1234.67 1441.5 1088.5" stroke="white"/>
<circle opacity="0.4" cx="1354" cy="1200" r="31.5" stroke="white"/>
<g clip-path="url(#clip1_189_1050)">
<g filter="url(#filter0_f_189_1050)">
<path d="M-672.558 213.378C-670.745 211.707 -668.833 210.009 -666.824 208.288C-93.9838 157.761 99.6562 403.936 698.223 451.328C1419.91 508.468 1863.31 -544.657 1273.39 -173.776C683.462 197.106 494.747 227.51 24.2738 116.178C-343.058 29.2532 -585.252 138.374 -666.824 208.288C-784.655 218.681 -918.531 241.628 -1075.28 281.441C-1810.29 468.132 -1022.88 330.282 -672.558 213.378Z" fill="#516221"/>
</g>
<g filter="url(#filter1_f_189_1050)">
<path d="M205.097 60.3056C-150.217 -37.4263 -380.683 87.2169 -451.502 161.755C-781.275 286.063 -1267.78 485.257 -575.597 287.566C289.625 40.4525 416.705 413.99 1097.47 478.949C1778.24 543.907 1936.05 -643.05 1381.55 -246.225C827.041 150.6 649.239 182.471 205.097 60.3056Z" fill="#B1C72E"/>
</g>
<g filter="url(#filter2_f_189_1050)">
<path d="M57.6842 11.5156C-328.321 -71.6868 -579.894 38.5474 -657.43 104.065C-1017.06 214.605 -1547.71 391.484 -793.265 214.677C149.789 -6.33066 285.686 319.096 1026.03 371.717C1766.38 424.338 1824.98 -612.661 1219.07 -262.79C613.16 87.08 540.191 115.519 57.6842 11.5156Z" fill="#E5F9BA"/>
</g>
<g filter="url(#filter3_f_189_1050)">
<path d="M37.0829 -77.7754C-349.351 -174.441 -600.369 -49.9579 -677.574 24.3669C-1036.65 148.691 -1566.41 347.836 -812.849 149.826C129.099 -97.687 266.649 273.937 1007.28 337.406C1747.91 400.876 1862.55 -819.304 1258.4 -423.303C654.261 -27.3021 520.125 43.0569 37.0829 -77.7754Z" fill="white"/>
</g>
</g>
<g clip-path="url(#clip2_189_1050)">
<g filter="url(#filter4_f_189_1050)">
<path d="M2055.27 2688.34C2053.89 2692.16 2052.4 2696.08 2050.8 2700.07C1323.39 3024.21 916.111 2646.15 94.6119 2799.27C-895.867 2983.88 -837.249 5113.03 -283.62 4188.63C270.008 3264.22 501.21 3131.96 1192.32 3148.83C1731.92 3162 1985.67 2862.4 2050.8 2700.07C2200.43 2633.4 2363.6 2537.02 2546.7 2400.19C3405.33 1758.57 2447.39 2330.81 2055.27 2688.34Z" fill="#516221"/>
</g>
<g filter="url(#filter5_f_189_1050)">
<path d="M987.185 3325.09C1517.5 3363.12 1746.2 3039.49 1794.26 2872.92C2154.64 2509.95 2676.6 1945.18 1881.42 2589.94C887.448 3395.89 490.206 2755.13 -450.885 2908.79C-1391.98 3062.45 -873.236 5324.56 -382.4 4366.35C108.435 3408.15 324.289 3277.56 987.185 3325.09Z" fill="#B1C72E"/>
</g>
<g filter="url(#filter6_f_189_1050)">
<path d="M1236.73 3424.18C1804.7 3439.43 2063.9 3116.55 2122.51 2953.2C2524.78 2586.82 3109.06 2018.35 2227.98 2675.46C1126.64 3496.84 726.873 2892.17 -290.315 3079.38C-1307.5 3266.59 -685.499 5388.46 -118.15 4440.04C449.2 3491.62 526.766 3405.12 1236.73 3424.18Z" fill="#E0E9CD"/>
</g>
<g filter="url(#filter7_f_189_1050)">
<path d="M1294.27 3513.26C1865.13 3536.78 2121.14 3205.17 2177.79 3036.43C2576.95 2661.63 3156.2 2079.54 2279.96 2749.6C1184.66 3587.17 774.727 2954.18 -244.703 3134.69C-1264.13 3315.21 -667.85 5621.48 -110.801 4644.82C446.248 3668.16 580.695 3483.85 1294.27 3513.26Z" fill="white"/>
</g>
</g>
<path opacity="0.4" d="M0 2573C140.881 2757.25 1002.85 3057.37 1440 2825.85" stroke="white"/>
<circle opacity="0.4" cx="290" cy="2749" r="41.5" stroke="white"/>
</g>
<defs>
<filter id="filter0_f_189_1050" x="-1492.64" y="-367.105" width="3153.69" height="934.684" filterUnits="userSpaceOnUse" color-interpolation-filters="sRGB">
<feFlood flood-opacity="0" result="BackgroundImageFix"/>
<feBlend mode="normal" in="SourceGraphic" in2="BackgroundImageFix" result="shape"/>
<feGaussianBlur stdDeviation="57" result="effect1_foregroundBlur_189_1050"/>
</filter>
<filter id="filter1_f_189_1050" x="-1041.48" y="-441.597" width="2872.91" height="1037.12" filterUnits="userSpaceOnUse" color-interpolation-filters="sRGB">
<feFlood flood-opacity="0" result="BackgroundImageFix"/>
<feBlend mode="normal" in="SourceGraphic" in2="BackgroundImageFix" result="shape"/>
<feGaussianBlur stdDeviation="57" result="effect1_foregroundBlur_189_1050"/>
</filter>
<filter id="filter2_f_189_1050" x="-1240.67" y="-399.057" width="2936.48" height="836.716" filterUnits="userSpaceOnUse" color-interpolation-filters="sRGB">
<feFlood flood-opacity="0" result="BackgroundImageFix"/>
<feBlend mode="normal" in="SourceGraphic" in2="BackgroundImageFix" result="shape"/>
<feGaussianBlur stdDeviation="32" result="effect1_foregroundBlur_189_1050"/>
</filter>
<filter id="filter3_f_189_1050" x="-1229.9" y="-536.549" width="2910.33" height="910.355" filterUnits="userSpaceOnUse" color-interpolation-filters="sRGB">
<feFlood flood-opacity="0" result="BackgroundImageFix"/>
<feBlend mode="normal" in="SourceGraphic" in2="BackgroundImageFix" result="shape"/>
<feGaussianBlur stdDeviation="17" result="effect1_foregroundBlur_189_1050"/>
</filter>
<filter id="filter4_f_189_1050" x="-793.826" y="1996.2" width="3801.34" height="2538.01" filterUnits="userSpaceOnUse" color-interpolation-filters="sRGB">
<feFlood flood-opacity="0" result="BackgroundImageFix"/>
<feBlend mode="normal" in="SourceGraphic" in2="BackgroundImageFix" result="shape"/>
<feGaussianBlur stdDeviation="57" result="effect1_foregroundBlur_189_1050"/>
</filter>
<filter id="filter5_f_189_1050" x="-1088.8" y="2182.06" width="3501.34" height="2534.05" filterUnits="userSpaceOnUse" color-interpolation-filters="sRGB">
<feFlood flood-opacity="0" result="BackgroundImageFix"/>
<feBlend mode="normal" in="SourceGraphic" in2="BackgroundImageFix" result="shape"/>
<feGaussianBlur stdDeviation="57" result="effect1_foregroundBlur_189_1050"/>
</filter>
<filter id="filter6_f_189_1050" x="-896.949" y="2310" width="3648.99" height="2436.96" filterUnits="userSpaceOnUse" color-interpolation-filters="sRGB">
<feFlood flood-opacity="0" result="BackgroundImageFix"/>
<feBlend mode="normal" in="SourceGraphic" in2="BackgroundImageFix" result="shape"/>
<feGaussianBlur stdDeviation="32" result="effect1_foregroundBlur_189_1050"/>
</filter>
<filter id="filter7_f_189_1050" x="-832.447" y="2408.86" width="3604.59" height="2510.09" filterUnits="userSpaceOnUse" color-interpolation-filters="sRGB">
<feFlood flood-opacity="0" result="BackgroundImageFix"/>
<feBlend mode="normal" in="SourceGraphic" in2="BackgroundImageFix" result="shape"/>
<feGaussianBlur stdDeviation="17" result="effect1_foregroundBlur_189_1050"/>
</filter>
<clipPath id="clip0_189_1050">
<rect width="1440" height="3258" fill="white"/>
</clipPath>
<clipPath id="clip1_189_1050">
<rect width="1581" height="579.392" fill="white" transform="translate(-79.3818 55.1763) rotate(-2)"/>
</clipPath>
<clipPath id="clip2_189_1050">
<rect width="1623.5" height="947.443" fill="white" transform="translate(1599.77 3169.95) rotate(160.269)"/>
</clipPath>
</defs>
</svg>
